# xmcd CD database file
#
# Track frame offsets:
#	187
#	18447
#	33997
#	52867
#
# Disc length: 945 seconds
#
# Revision: 0
# Processed by: cddbd v1.5.1PL0 Copyright (c) Steve Scherf et al.
# Submitted via: CDex 1.40Release
#
DISCID=2403af04
DTITLE=ha[']l - color as beginning
DYEAR=1900
DGENRE=Pop
TTITLE0=color as beginning
TTITLE1=summer time
TTITLE2=I wanna tell you
TTITLE3=color as beginning(Instrumental)
EXTD=ID3G: 13
EXTT0=
EXTT1=
EXTT2=
EXTT3=
PLAYORDER=
